<?xml version="1.0" encoding="UTF-8" standalone="no"?>
<!DOCTYPE svg PUBLIC "-//W3C//DTD SVG 1.1//EN"
 "http://www.w3.org/Graphics/SVG/1.1/DTD/svg11.dtd">
<!-- Generated by graphviz version 2.43.0 (0)
 -->
<!-- Title: package_dependency_graph Pages: 1 -->
<svg width="1437pt" height="617pt"
 viewBox="0.00 0.00 1437.00 617.00" xmlns="http://www.w3.org/2000/svg" xmlns:xlink="http://www.w3.org/1999/xlink">
<g id="graph0" class="graph" transform="scale(1 1) rotate(0) translate(4 613)">
<title>package_dependency_graph</title>
<polygon fill="white" stroke="transparent" points="-4,4 -4,-613 1433,-613 1433,4 -4,4"/>
<text text-anchor="middle" x="714.5" y="-592.2" font-family="Arial" font-size="16.00">Gogg Architecture</text>
<g id="clust1" class="cluster">
<title>cluster_drivers</title>
<path fill="#e6f2fa" stroke="#e6f2fa" d="M20,-497C20,-497 440,-497 440,-497 446,-497 452,-503 452,-509 452,-509 452,-563 452,-563 452,-569 446,-575 440,-575 440,-575 20,-575 20,-575 14,-575 8,-569 8,-563 8,-563 8,-509 8,-509 8,-503 14,-497 20,-497"/>
<text text-anchor="middle" x="230" y="-558.2" font-family="Arial" font-size="16.00">UI Layer</text>
</g>
<g id="clust2" class="cluster">
<title>cluster_core</title>
<path fill="#eaf7ec" stroke="#eaf7ec" d="M578,-262C578,-262 877,-262 877,-262 883,-262 889,-268 889,-274 889,-274 889,-436 889,-436 889,-442 883,-448 877,-448 877,-448 578,-448 578,-448 572,-448 566,-442 566,-436 566,-436 566,-274 566,-274 566,-268 572,-262 578,-262"/>
<text text-anchor="middle" x="727.5" y="-431.2" font-family="Arial" font-size="16.00">Service Layer</text>
</g>
<g id="clust3" class="cluster">
<title>cluster_infra</title>
<path fill="#fef8e4" stroke="#fef8e4" d="M1015,-8C1015,-8 1153,-8 1153,-8 1159,-8 1165,-14 1165,-20 1165,-20 1165,-290 1165,-290 1165,-296 1159,-302 1153,-302 1153,-302 1015,-302 1015,-302 1009,-302 1003,-296 1003,-290 1003,-290 1003,-20 1003,-20 1003,-14 1009,-8 1015,-8"/>
<text text-anchor="middle" x="1084" y="-285.2" font-family="Arial" font-size="16.00">Adapter/Utility Layer</text>
</g>
<g id="clust4" class="cluster">
<title>cluster_external</title>
<path fill="#eeeeee" stroke="#eeeeee" d="M1291,-175C1291,-175 1410,-175 1410,-175 1416,-175 1422,-181 1422,-187 1422,-187 1422,-469 1422,-469 1422,-475 1416,-481 1410,-481 1410,-481 1291,-481 1291,-481 1285,-481 1279,-475 1279,-469 1279,-469 1279,-187 1279,-187 1279,-181 1285,-175 1291,-175"/>
<text text-anchor="middle" x="1350.5" y="-464.2" font-family="Arial" font-size="16.00">External Systems</text>
</g>
<!-- main -->
<g id="node1" class="node">
<title>main</title>
<path fill="#a7c7e7" stroke="black" d="M63,-541C63,-541 28,-541 28,-541 22,-541 16,-535 16,-529 16,-529 16,-517 16,-517 16,-511 22,-505 28,-505 28,-505 63,-505 63,-505 69,-505 75,-511 75,-517 75,-517 75,-529 75,-529 75,-535 69,-541 63,-541"/>
<text text-anchor="middle" x="45.5" y="-519.3" font-family="Arial" font-size="14.00">main</text>
</g>
<!-- cmd -->
<g id="node2" class="node">
<title>cmd</title>
<path fill="#a7c7e7" stroke="black" d="M248,-541C248,-541 217,-541 217,-541 211,-541 205,-535 205,-529 205,-529 205,-517 205,-517 205,-511 211,-505 217,-505 217,-505 248,-505 248,-505 254,-505 260,-511 260,-517 260,-517 260,-529 260,-529 260,-535 254,-541 248,-541"/>
<text text-anchor="middle" x="232.5" y="-519.3" font-family="Arial" font-size="14.00">cmd</text>
</g>
<!-- main&#45;&gt;cmd -->
<g id="edge1" class="edge">
<title>main&#45;&gt;cmd</title>
<path fill="none" stroke="black" d="M75.12,-529.68C104.69,-535.48 123.97,-534.62 194.63,-527.1"/>
<polygon fill="black" stroke="black" points="195.37,-530.54 204.94,-525.99 194.63,-523.58 195.37,-530.54"/>
</g>
<!-- gui -->
<g id="node3" class="node">
<title>gui</title>
<path fill="#a7c7e7" stroke="black" d="M432,-541C432,-541 402,-541 402,-541 396,-541 390,-535 390,-529 390,-529 390,-517 390,-517 390,-511 396,-505 402,-505 402,-505 432,-505 432,-505 438,-505 444,-511 444,-517 444,-517 444,-529 444,-529 444,-535 438,-541 432,-541"/>
<text text-anchor="middle" x="417" y="-519.3" font-family="Arial" font-size="14.00">gui</text>
</g>
<!-- cmd&#45;&gt;gui -->
<g id="edge2" class="edge">
<title>cmd&#45;&gt;gui</title>
<path fill="none" stroke="black" d="M260.07,-531.26C291.91,-539.89 309.77,-539.01 379.72,-528.63"/>
<polygon fill="black" stroke="black" points="380.57,-532.04 389.95,-527.1 379.54,-525.12 380.57,-532.04"/>
</g>
<!-- auth -->
<g id="node4" class="node">
<title>auth</title>
<path fill="#d4edda" stroke="black" d="M648,-414C648,-414 617,-414 617,-414 611,-414 605,-408 605,-402 605,-402 605,-390 605,-390 605,-384 611,-378 617,-378 617,-378 648,-378 648,-378 654,-378 660,-384 660,-390 660,-390 660,-402 660,-402 660,-408 654,-414 648,-414"/>
<text text-anchor="middle" x="632.5" y="-392.3" font-family="Arial" font-size="14.00">auth</text>
</g>
<!-- cmd&#45;&gt;auth -->
<g id="edge3" class="edge">
<title>cmd&#45;&gt;auth</title>
<path fill="none" stroke="black" d="M260.32,-518.5C356.79,-502.67 379.4,-494.96 595.4,-410.51"/>
<polygon fill="black" stroke="black" points="596.79,-413.73 604.83,-406.83 594.24,-407.21 596.79,-413.73"/>
</g>
<!-- client -->
<g id="node5" class="node">
<title>client</title>
<path fill="#d4edda" stroke="black" d="M869,-414C869,-414 833,-414 833,-414 827,-414 821,-408 821,-402 821,-402 821,-390 821,-390 821,-384 827,-378 833,-378 833,-378 869,-378 869,-378 875,-378 881,-384 881,-390 881,-390 881,-402 881,-402 881,-408 875,-414 869,-414"/>
<text text-anchor="middle" x="851" y="-392.3" font-family="Arial" font-size="14.00">client</text>
</g>
<!-- cmd&#45;&gt;client -->
<g id="edge4" class="edge">
<title>cmd&#45;&gt;client</title>
<path fill="none" stroke="black" d="M260.12,-526.08C445.15,-546.49 467.37,-541.3 811.5,-410.97"/>
<polygon fill="black" stroke="black" points="812.88,-414.19 820.99,-407.38 810.4,-407.64 812.88,-414.19"/>
</g>
<!-- pkg_operations -->
<g id="node6" class="node">
<title>pkg_operations</title>
<path fill="#d4edda" stroke="black" d="M679,-306C679,-306 586,-306 586,-306 580,-306 574,-300 574,-294 574,-294 574,-282 574,-282 574,-276 580,-270 586,-270 586,-270 679,-270 679,-270 685,-270 691,-276 691,-282 691,-282 691,-294 691,-294 691,-300 685,-306 679,-306"/>
<text text-anchor="middle" x="632.5" y="-284.3" font-family="Arial" font-size="14.00">pkg/operations</text>
</g>
<!-- cmd&#45;&gt;pkg_operations -->
<g id="edge5" class="edge">
<title>cmd&#45;&gt;pkg_operations</title>
<path fill="none" stroke="black" d="M257.61,-504.81C343.05,-443.09 366.48,-429.69 589.4,-310.95"/>
<polygon fill="black" stroke="black" points="591.26,-313.92 598.44,-306.13 587.97,-307.74 591.26,-313.92"/>
</g>
<!-- gui&#45;&gt;auth -->
<g id="edge6" class="edge">
<title>gui&#45;&gt;auth</title>
<path fill="none" stroke="black" d="M444.04,-511.22C485.53,-492.76 504.43,-481.14 596.76,-419.78"/>
<polygon fill="black" stroke="black" points="598.94,-422.54 605.33,-414.08 595.06,-416.71 598.94,-422.54"/>
</g>
<!-- gui&#45;&gt;client -->
<g id="edge7" class="edge">
<title>gui&#45;&gt;client</title>
<path fill="none" stroke="black" d="M444.2,-525.73C587.02,-539.79 606.74,-534.04 811.73,-418.23"/>
<polygon fill="black" stroke="black" points="813.69,-421.14 820.68,-413.17 810.25,-415.04 813.69,-421.14"/>
</g>
<!-- gui&#45;&gt;pkg_operations -->
<g id="edge8" class="edge">
<title>gui&#45;&gt;pkg_operations</title>
<path fill="none" stroke="black" d="M428.57,-504.6C468.34,-441.76 481.14,-428.23 605.19,-313.29"/>
<polygon fill="black" stroke="black" points="607.78,-315.66 612.74,-306.29 603.02,-310.52 607.78,-315.66"/>
</g>
<!-- auth&#45;&gt;client -->
<g id="edge17" class="edge">
<title>auth&#45;&gt;client</title>
<path fill="none" stroke="black" d="M660.09,-405.66C737.48,-432.46 755.86,-434.84 811.17,-412.78"/>
<polygon fill="black" stroke="black" points="812.83,-415.89 820.77,-408.87 810.18,-409.41 812.83,-415.89"/>
</g>
<!-- db -->
<g id="node7" class="node">
<title>db</title>
<path fill="#fff3cd" stroke="black" d="M1098.5,-160C1098.5,-160 1068.5,-160 1068.5,-160 1062.5,-160 1056.5,-154 1056.5,-148 1056.5,-148 1056.5,-136 1056.5,-136 1056.5,-130 1062.5,-124 1068.5,-124 1068.5,-124 1098.5,-124 1098.5,-124 1104.5,-124 1110.5,-130 1110.5,-136 1110.5,-136 1110.5,-148 1110.5,-148 1110.5,-154 1104.5,-160 1098.5,-160"/>
<text text-anchor="middle" x="1083.5" y="-138.3" font-family="Arial" font-size="14.00">db</text>
</g>
<!-- auth&#45;&gt;db -->
<g id="edge18" class="edge">
<title>auth&#45;&gt;db</title>
<path fill="none" stroke="black" d="M660.02,-383.99C935.31,-263.81 961.18,-251.18 1055.73,-166.93"/>
<polygon fill="black" stroke="black" points="1058.14,-169.47 1063.26,-160.19 1053.47,-164.25 1058.14,-169.47"/>
</g>
<!-- client&#45;&gt;db -->
<g id="edge13" class="edge">
<title>client&#45;&gt;db</title>
<path fill="none" stroke="black" d="M876.29,-377.78C1022.06,-272.64 1036.56,-258.9 1072.5,-169.7"/>
<polygon fill="black" stroke="black" points="1075.83,-170.83 1076.29,-160.24 1069.33,-168.23 1075.83,-170.83"/>
</g>
<!-- pkg_pool -->
<g id="node9" class="node">
<title>pkg_pool</title>
<path fill="#fff3cd" stroke="black" d="M1111.5,-268C1111.5,-268 1055.5,-268 1055.5,-268 1049.5,-268 1043.5,-262 1043.5,-256 1043.5,-256 1043.5,-244 1043.5,-244 1043.5,-238 1049.5,-232 1055.5,-232 1055.5,-232 1111.5,-232 1111.5,-232 1117.5,-232 1123.5,-238 1123.5,-244 1123.5,-244 1123.5,-256 1123.5,-256 1123.5,-262 1117.5,-268 1111.5,-268"/>
<text text-anchor="middle" x="1083.5" y="-246.3" font-family="Arial" font-size="14.00">pkg/pool</text>
</g>
<!-- client&#45;&gt;pkg_pool -->
<g id="edge14" class="edge">
<title>client&#45;&gt;pkg_pool</title>
<path fill="none" stroke="black" d="M881.07,-384.33C1003.32,-336.74 1022.23,-326.92 1062.91,-276.31"/>
<polygon fill="black" stroke="black" points="1065.88,-278.19 1069.36,-268.18 1060.4,-273.84 1065.88,-278.19"/>
</g>
<!-- gog_api -->
<g id="node10" class="node">
<title>gog_api</title>
<path fill="whitesmoke" stroke="black" d="M1394,-443.26C1394,-445.26 1374.28,-446.88 1350,-446.88 1325.72,-446.88 1306,-445.26 1306,-443.26 1306,-443.26 1306,-410.74 1306,-410.74 1306,-408.74 1325.72,-407.12 1350,-407.12 1374.28,-407.12 1394,-408.74 1394,-410.74 1394,-410.74 1394,-443.26 1394,-443.26"/>
<path fill="none" stroke="black" d="M1394,-443.26C1394,-441.27 1374.28,-439.65 1350,-439.65 1325.72,-439.65 1306,-441.27 1306,-443.26"/>
<text text-anchor="middle" x="1350" y="-423.3" font-family="Arial" font-size="14.00">GOG API</text>
</g>
<!-- client&#45;&gt;gog_api -->
<g id="edge15" class="edge">
<title>client&#45;&gt;gog_api</title>
<path fill="none" stroke="black" d="M881.4,-399.98C1153.24,-435.56 1193.66,-440.1 1295.86,-431.81"/>
<polygon fill="black" stroke="black" points="1296.28,-435.29 1305.96,-430.97 1295.7,-428.31 1296.28,-435.29"/>
</g>
<!-- user_fs -->
<g id="node12" class="node">
<title>user_fs</title>
<path fill="whitesmoke" stroke="black" d="M1413,-331.26C1413,-333.26 1384.76,-334.88 1350,-334.88 1315.24,-334.88 1287,-333.26 1287,-331.26 1287,-331.26 1287,-298.74 1287,-298.74 1287,-296.74 1315.24,-295.12 1350,-295.12 1384.76,-295.12 1413,-296.74 1413,-298.74 1413,-298.74 1413,-331.26 1413,-331.26"/>
<path fill="none" stroke="black" d="M1413,-331.26C1413,-329.27 1384.76,-327.65 1350,-327.65 1315.24,-327.65 1287,-329.27 1287,-331.26"/>
<text text-anchor="middle" x="1350" y="-311.3" font-family="Arial" font-size="14.00">User Filesystem</text>
</g>
<!-- client&#45;&gt;user_fs -->
<g id="edge16" class="edge">
<title>client&#45;&gt;user_fs</title>
<path fill="none" stroke="black" d="M881.29,-393.92C1149.99,-375.45 1195.49,-371.37 1289.92,-337.49"/>
<polygon fill="black" stroke="black" points="1291.31,-340.71 1299.52,-334.01 1288.93,-334.13 1291.31,-340.71"/>
</g>
<!-- pkg_operations&#45;&gt;client -->
<g id="edge9" class="edge">
<title>pkg_operations&#45;&gt;client</title>
<path fill="none" stroke="black" d="M657.19,-306.05C743.89,-369.34 764.48,-382.3 810.73,-390.3"/>
<polygon fill="black" stroke="black" points="810.25,-393.77 820.68,-391.9 811.36,-386.86 810.25,-393.77"/>
</g>
<!-- pkg_operations&#45;&gt;db -->
<g id="edge10" class="edge">
<title>pkg_operations&#45;&gt;db</title>
<path fill="none" stroke="black" d="M680.12,-269.89C915.55,-180.4 945.27,-170.16 1046.26,-149.51"/>
<polygon fill="black" stroke="black" points="1047.16,-152.89 1056.26,-147.47 1045.76,-146.03 1047.16,-152.89"/>
</g>
<!-- pkg_hasher -->
<g id="node8" class="node">
<title>pkg_hasher</title>
<path fill="#fff3cd" stroke="black" d="M1119,-52C1119,-52 1048,-52 1048,-52 1042,-52 1036,-46 1036,-40 1036,-40 1036,-28 1036,-28 1036,-22 1042,-16 1048,-16 1048,-16 1119,-16 1119,-16 1125,-16 1131,-22 1131,-28 1131,-28 1131,-40 1131,-40 1131,-46 1125,-52 1119,-52"/>
<text text-anchor="middle" x="1083.5" y="-30.3" font-family="Arial" font-size="14.00">pkg/hasher</text>
</g>
<!-- pkg_operations&#45;&gt;pkg_hasher -->
<g id="edge11" class="edge">
<title>pkg_operations&#45;&gt;pkg_hasher</title>
<path fill="none" stroke="black" d="M660.36,-269.86C894.24,-117.65 932.08,-93.9 1027.46,-55.82"/>
<polygon fill="black" stroke="black" points="1028.87,-59.02 1036.88,-52.08 1026.29,-52.52 1028.87,-59.02"/>
</g>
<!-- pkg_operations&#45;&gt;user_fs -->
<g id="edge12" class="edge">
<title>pkg_operations&#45;&gt;user_fs</title>
<path fill="none" stroke="black" d="M691.14,-290.18C1075.98,-304.5 1133.52,-306.65 1276.53,-312.16"/>
<polygon fill="black" stroke="black" points="1276.4,-315.66 1286.52,-312.55 1276.67,-308.67 1276.4,-315.66"/>
</g>
<!-- db_file -->
<g id="node11" class="node">
<title>db_file</title>
<path fill="whitesmoke" stroke="black" d="M1406,-219.26C1406,-221.26 1380.9,-222.88 1350,-222.88 1319.1,-222.88 1294,-221.26 1294,-219.26 1294,-219.26 1294,-186.74 1294,-186.74 1294,-184.74 1319.1,-183.12 1350,-183.12 1380.9,-183.12 1406,-184.74 1406,-186.74 1406,-186.74 1406,-219.26 1406,-219.26"/>
<path fill="none" stroke="black" d="M1406,-219.26C1406,-217.27 1380.9,-215.65 1350,-215.65 1319.1,-215.65 1294,-217.27 1294,-219.26"/>
<text text-anchor="middle" x="1350" y="-199.3" font-family="Arial" font-size="14.00">Database File</text>
</g>
<!-- db&#45;&gt;db_file -->
<g id="edge19" class="edge">
<title>db&#45;&gt;db_file</title>
<path fill="none" stroke="black" d="M1110.99,-144.64C1230.9,-156.22 1262.71,-160.27 1303.56,-179.05"/>
<polygon fill="black" stroke="black" points="1302.2,-182.28 1312.73,-183.42 1305.22,-175.96 1302.2,-182.28"/>
</g>
</g>
</svg>
