<?xml version="1.0" encoding="UTF-8" standalone="no"?>
<!DOCTYPE svg PUBLIC "-//W3C//DTD SVG 1.1//EN"
 "http://www.w3.org/Graphics/SVG/1.1/DTD/svg11.dtd">
<!-- Generated by graphviz version 2.43.0 (0)
 -->
<!-- Title: package_dependency_graph Pages: 1 -->
<svg width="690pt" height="1128pt"
 viewBox="0.00 0.00 690.00 1127.88" xmlns="http://www.w3.org/2000/svg" xmlns:xlink="http://www.w3.org/1999/xlink">
<g id="graph0" class="graph" transform="scale(1 1) rotate(0) translate(4 1123.88)">
<title>package_dependency_graph</title>
<polygon fill="white" stroke="transparent" points="-4,4 -4,-1123.88 686,-1123.88 686,4 -4,4"/>
<text text-anchor="middle" x="341" y="-1103.08" font-family="Arial" font-size="16.00">Gogg Application Architecture</text>
<g id="clust1" class="cluster">
<title>cluster_drivers</title>
<path fill="#e6f2fa" stroke="#e6f2fa" d="M543,-675.88C543,-675.88 662,-675.88 662,-675.88 668,-675.88 674,-681.88 674,-687.88 674,-687.88 674,-1073.88 674,-1073.88 674,-1079.88 668,-1085.88 662,-1085.88 662,-1085.88 543,-1085.88 543,-1085.88 537,-1085.88 531,-1079.88 531,-1073.88 531,-1073.88 531,-687.88 531,-687.88 531,-681.88 537,-675.88 543,-675.88"/>
<text text-anchor="middle" x="602.5" y="-1069.08" font-family="Arial" font-size="16.00">Drivers (UI Layer)</text>
</g>
<g id="clust2" class="cluster">
<title>cluster_core</title>
<path fill="#eaf7ec" stroke="#eaf7ec" d="M278,-343.88C278,-343.88 515,-343.88 515,-343.88 521,-343.88 527,-349.88 527,-355.88 527,-355.88 527,-575.88 527,-575.88 527,-581.88 521,-587.88 515,-587.88 515,-587.88 278,-587.88 278,-587.88 272,-587.88 266,-581.88 266,-575.88 266,-575.88 266,-355.88 266,-355.88 266,-349.88 272,-343.88 278,-343.88"/>
<text text-anchor="middle" x="396.5" y="-571.08" font-family="Arial" font-size="16.00">Application Core (Service Layer)</text>
</g>
<g id="clust3" class="cluster">
<title>cluster_infra</title>
<path fill="#fef8e4" stroke="#fef8e4" d="M20,-177.88C20,-177.88 386,-177.88 386,-177.88 392,-177.88 398,-183.88 398,-189.88 398,-189.88 398,-243.88 398,-243.88 398,-249.88 392,-255.88 386,-255.88 386,-255.88 20,-255.88 20,-255.88 14,-255.88 8,-249.88 8,-243.88 8,-243.88 8,-189.88 8,-189.88 8,-183.88 14,-177.88 20,-177.88"/>
<text text-anchor="middle" x="203" y="-239.07" font-family="Arial" font-size="16.00">Infrastructure (Adapter/Utility Layer)</text>
</g>
<g id="clust4" class="cluster">
<title>cluster_external</title>
<path fill="#eeeeee" stroke="#eeeeee" d="M179,-8C179,-8 641,-8 641,-8 647,-8 653,-14 653,-20 653,-20 653,-77.88 653,-77.88 653,-83.88 647,-89.88 641,-89.88 641,-89.88 179,-89.88 179,-89.88 173,-89.88 167,-83.88 167,-77.88 167,-77.88 167,-20 167,-20 167,-14 173,-8 179,-8"/>
<text text-anchor="middle" x="410" y="-73.08" font-family="Arial" font-size="16.00">External Systems</text>
</g>
<!-- main -->
<g id="node1" class="node">
<title>main</title>
<path fill="#a7c7e7" stroke="black" d="M619.5,-1051.88C619.5,-1051.88 584.5,-1051.88 584.5,-1051.88 578.5,-1051.88 572.5,-1045.88 572.5,-1039.88 572.5,-1039.88 572.5,-1027.88 572.5,-1027.88 572.5,-1021.88 578.5,-1015.88 584.5,-1015.88 584.5,-1015.88 619.5,-1015.88 619.5,-1015.88 625.5,-1015.88 631.5,-1021.88 631.5,-1027.88 631.5,-1027.88 631.5,-1039.88 631.5,-1039.88 631.5,-1045.88 625.5,-1051.88 619.5,-1051.88"/>
<text text-anchor="middle" x="602" y="-1030.17" font-family="Arial" font-size="14.00">main</text>
</g>
<!-- cmd -->
<g id="node2" class="node">
<title>cmd</title>
<path fill="#a7c7e7" stroke="black" d="M617.5,-885.88C617.5,-885.88 586.5,-885.88 586.5,-885.88 580.5,-885.88 574.5,-879.88 574.5,-873.88 574.5,-873.88 574.5,-861.88 574.5,-861.88 574.5,-855.88 580.5,-849.88 586.5,-849.88 586.5,-849.88 617.5,-849.88 617.5,-849.88 623.5,-849.88 629.5,-855.88 629.5,-861.88 629.5,-861.88 629.5,-873.88 629.5,-873.88 629.5,-879.88 623.5,-885.88 617.5,-885.88"/>
<text text-anchor="middle" x="602" y="-864.17" font-family="Arial" font-size="14.00">cmd</text>
</g>
<!-- main&#45;&gt;cmd -->
<g id="edge1" class="edge">
<title>main&#45;&gt;cmd</title>
<path fill="none" stroke="black" d="M607.83,-1015.72C618.49,-981.16 618.06,-967.94 606.54,-895.96"/>
<polygon fill="black" stroke="black" points="609.97,-895.22 604.92,-885.9 603.06,-896.33 609.97,-895.22"/>
</g>
<!-- gui -->
<g id="node3" class="node">
<title>gui</title>
<path fill="#a7c7e7" stroke="black" d="M636,-719.88C636,-719.88 606,-719.88 606,-719.88 600,-719.88 594,-713.88 594,-707.88 594,-707.88 594,-695.88 594,-695.88 594,-689.88 600,-683.88 606,-683.88 606,-683.88 636,-683.88 636,-683.88 642,-683.88 648,-689.88 648,-695.88 648,-695.88 648,-707.88 648,-707.88 648,-713.88 642,-719.88 636,-719.88"/>
<text text-anchor="middle" x="621" y="-698.17" font-family="Arial" font-size="14.00">gui</text>
</g>
<!-- cmd&#45;&gt;gui -->
<g id="edge2" class="edge">
<title>cmd&#45;&gt;gui</title>
<path fill="none" stroke="black" d="M612.13,-849.85C633.73,-810.56 634.91,-798.12 625.12,-729.94"/>
<polygon fill="black" stroke="black" points="628.57,-729.33 623.67,-719.93 621.64,-730.33 628.57,-729.33"/>
</g>
<!-- auth -->
<g id="node4" class="node">
<title>auth</title>
<path fill="#d4edda" stroke="black" d="M506.5,-553.88C506.5,-553.88 475.5,-553.88 475.5,-553.88 469.5,-553.88 463.5,-547.88 463.5,-541.88 463.5,-541.88 463.5,-529.88 463.5,-529.88 463.5,-523.88 469.5,-517.88 475.5,-517.88 475.5,-517.88 506.5,-517.88 506.5,-517.88 512.5,-517.88 518.5,-523.88 518.5,-529.88 518.5,-529.88 518.5,-541.88 518.5,-541.88 518.5,-547.88 512.5,-553.88 506.5,-553.88"/>
<text text-anchor="middle" x="491" y="-532.17" font-family="Arial" font-size="14.00">auth</text>
</g>
<!-- cmd&#45;&gt;auth -->
<g id="edge3" class="edge">
<title>cmd&#45;&gt;auth</title>
<path fill="none" stroke="black" d="M602.04,-849.59C602.1,-748.54 597.15,-734.45 505.48,-562.93"/>
<polygon fill="black" stroke="black" points="508.56,-561.28 500.76,-554.11 502.39,-564.58 508.56,-561.28"/>
</g>
<!-- client -->
<g id="node5" class="node">
<title>client</title>
<path fill="#d4edda" stroke="black" d="M507,-387.88C507,-387.88 471,-387.88 471,-387.88 465,-387.88 459,-381.88 459,-375.88 459,-375.88 459,-363.88 459,-363.88 459,-357.88 465,-351.88 471,-351.88 471,-351.88 507,-351.88 507,-351.88 513,-351.88 519,-357.88 519,-363.88 519,-363.88 519,-375.88 519,-375.88 519,-381.88 513,-387.88 507,-387.88"/>
<text text-anchor="middle" x="489" y="-366.18" font-family="Arial" font-size="14.00">client</text>
</g>
<!-- cmd&#45;&gt;client -->
<g id="edge4" class="edge">
<title>cmd&#45;&gt;client</title>
<path fill="none" stroke="black" d="M605.34,-849.81C640.48,-659.22 637.68,-645.37 503.61,-396.93"/>
<polygon fill="black" stroke="black" points="506.62,-395.13 498.79,-387.99 500.46,-398.45 506.62,-395.13"/>
</g>
<!-- pkg_operations -->
<g id="node6" class="node">
<title>pkg_operations</title>
<path fill="#d4edda" stroke="black" d="M379.5,-553.88C379.5,-553.88 286.5,-553.88 286.5,-553.88 280.5,-553.88 274.5,-547.88 274.5,-541.88 274.5,-541.88 274.5,-529.88 274.5,-529.88 274.5,-523.88 280.5,-517.88 286.5,-517.88 286.5,-517.88 379.5,-517.88 379.5,-517.88 385.5,-517.88 391.5,-523.88 391.5,-529.88 391.5,-529.88 391.5,-541.88 391.5,-541.88 391.5,-547.88 385.5,-553.88 379.5,-553.88"/>
<text text-anchor="middle" x="333" y="-532.17" font-family="Arial" font-size="14.00">pkg/operations</text>
</g>
<!-- cmd&#45;&gt;pkg_operations -->
<g id="edge5" class="edge">
<title>cmd&#45;&gt;pkg_operations</title>
<path fill="none" stroke="black" d="M587.37,-849.73C523.54,-770.55 510.44,-754.39 354.18,-561.96"/>
<polygon fill="black" stroke="black" points="356.86,-559.71 347.84,-554.15 351.43,-564.12 356.86,-559.71"/>
</g>
<!-- gui&#45;&gt;auth -->
<g id="edge6" class="edge">
<title>gui&#45;&gt;auth</title>
<path fill="none" stroke="black" d="M614.39,-683.65C597.06,-636.86 587.96,-625.27 518.17,-560.86"/>
<polygon fill="black" stroke="black" points="520.49,-558.23 510.76,-554.03 515.74,-563.38 520.49,-558.23"/>
</g>
<!-- gui&#45;&gt;client -->
<g id="edge7" class="edge">
<title>gui&#45;&gt;client</title>
<path fill="none" stroke="black" d="M621.57,-683.67C625.9,-540.88 621.81,-527.35 511.03,-395.94"/>
<polygon fill="black" stroke="black" points="513.41,-393.33 504.28,-387.94 508.06,-397.84 513.41,-393.33"/>
</g>
<!-- gui&#45;&gt;pkg_operations -->
<g id="edge8" class="edge">
<title>gui&#45;&gt;pkg_operations</title>
<path fill="none" stroke="black" d="M593.68,-685.25C537.92,-651.39 515.4,-638.52 374.19,-559.05"/>
<polygon fill="black" stroke="black" points="375.59,-555.82 365.16,-553.97 372.16,-561.93 375.59,-555.82"/>
</g>
<!-- auth&#45;&gt;client -->
<g id="edge17" class="edge">
<title>auth&#45;&gt;client</title>
<path fill="none" stroke="black" d="M495.83,-517.87C514.08,-449.45 516.1,-434.8 500.99,-397.5"/>
<polygon fill="black" stroke="black" points="504.12,-395.92 497.02,-388.06 497.67,-398.63 504.12,-395.92"/>
</g>
<!-- db -->
<g id="node7" class="node">
<title>db</title>
<path fill="#fff3cd" stroke="black" d="M226,-221.88C226,-221.88 196,-221.88 196,-221.88 190,-221.88 184,-215.88 184,-209.88 184,-209.88 184,-197.88 184,-197.88 184,-191.88 190,-185.88 196,-185.88 196,-185.88 226,-185.88 226,-185.88 232,-185.88 238,-191.88 238,-197.88 238,-197.88 238,-209.88 238,-209.88 238,-215.88 232,-221.88 226,-221.88"/>
<text text-anchor="middle" x="211" y="-200.18" font-family="Arial" font-size="14.00">db</text>
</g>
<!-- auth&#45;&gt;db -->
<g id="edge18" class="edge">
<title>auth&#45;&gt;db</title>
<path fill="none" stroke="black" d="M481.34,-517.81C367.48,-304.91 354.06,-283.58 247.04,-223.73"/>
<polygon fill="black" stroke="black" points="248.58,-220.58 238.14,-218.78 245.18,-226.7 248.58,-220.58"/>
</g>
<!-- client&#45;&gt;db -->
<g id="edge13" class="edge">
<title>client&#45;&gt;db</title>
<path fill="none" stroke="black" d="M472.11,-351.64C364.03,-235.11 348.49,-222.82 248.02,-208.78"/>
<polygon fill="black" stroke="black" points="248.41,-205.3 238.02,-207.41 247.46,-212.24 248.41,-205.3"/>
</g>
<!-- pkg_pool -->
<g id="node9" class="node">
<title>pkg_pool</title>
<path fill="#fff3cd" stroke="black" d="M378,-221.88C378,-221.88 322,-221.88 322,-221.88 316,-221.88 310,-215.88 310,-209.88 310,-209.88 310,-197.88 310,-197.88 310,-191.88 316,-185.88 322,-185.88 322,-185.88 378,-185.88 378,-185.88 384,-185.88 390,-191.88 390,-197.88 390,-197.88 390,-209.88 390,-209.88 390,-215.88 384,-221.88 378,-221.88"/>
<text text-anchor="middle" x="350" y="-200.18" font-family="Arial" font-size="14.00">pkg/pool</text>
</g>
<!-- client&#45;&gt;pkg_pool -->
<g id="edge14" class="edge">
<title>client&#45;&gt;pkg_pool</title>
<path fill="none" stroke="black" d="M480.74,-351.86C443.24,-270.22 432.15,-249.96 393.99,-227.21"/>
<polygon fill="black" stroke="black" points="395.27,-223.9 384.85,-221.97 391.79,-229.98 395.27,-223.9"/>
</g>
<!-- gog_api -->
<g id="node10" class="node">
<title>gog_api</title>
<path fill="whitesmoke" stroke="black" d="M645,-52.2C645,-54.19 625.28,-55.81 601,-55.81 576.72,-55.81 557,-54.19 557,-52.2 557,-52.2 557,-19.68 557,-19.68 557,-17.68 576.72,-16.06 601,-16.06 625.28,-16.06 645,-17.68 645,-19.68 645,-19.68 645,-52.2 645,-52.2"/>
<path fill="none" stroke="black" d="M645,-52.2C645,-50.21 625.28,-48.59 601,-48.59 576.72,-48.59 557,-50.21 557,-52.2"/>
<text text-anchor="middle" x="601" y="-32.24" font-family="Arial" font-size="14.00">GOG API</text>
</g>
<!-- client&#45;&gt;gog_api -->
<g id="edge15" class="edge">
<title>client&#45;&gt;gog_api</title>
<path fill="none" stroke="black" d="M496.34,-351.71C571.93,-164.56 580.41,-142.36 595.28,-65.96"/>
<polygon fill="black" stroke="black" points="598.77,-66.33 597.23,-55.84 591.9,-65 598.77,-66.33"/>
</g>
<!-- user_fs -->
<g id="node12" class="node">
<title>user_fs</title>
<path fill="whitesmoke" stroke="black" d="M485,-52.2C485,-54.19 456.76,-55.81 422,-55.81 387.24,-55.81 359,-54.19 359,-52.2 359,-52.2 359,-19.68 359,-19.68 359,-17.68 387.24,-16.06 422,-16.06 456.76,-16.06 485,-17.68 485,-19.68 485,-19.68 485,-52.2 485,-52.2"/>
<path fill="none" stroke="black" d="M485,-52.2C485,-50.21 456.76,-48.59 422,-48.59 387.24,-48.59 359,-50.21 359,-52.2"/>
<text text-anchor="middle" x="422" y="-32.24" font-family="Arial" font-size="14.00">User Filesystem</text>
</g>
<!-- client&#45;&gt;user_fs -->
<g id="edge16" class="edge">
<title>client&#45;&gt;user_fs</title>
<path fill="none" stroke="black" d="M488.06,-351.71C478.16,-161.17 475.95,-138.54 437.54,-65.09"/>
<polygon fill="black" stroke="black" points="440.44,-63.08 432.68,-55.87 434.25,-66.35 440.44,-63.08"/>
</g>
<!-- pkg_operations&#45;&gt;client -->
<g id="edge9" class="edge">
<title>pkg_operations&#45;&gt;client</title>
<path fill="none" stroke="black" d="M349.06,-517.62C418.22,-439.06 435.36,-419.93 461.91,-394.88"/>
<polygon fill="black" stroke="black" points="464.38,-397.36 469.29,-387.97 459.6,-392.24 464.38,-397.36"/>
</g>
<!-- pkg_operations&#45;&gt;db -->
<g id="edge10" class="edge">
<title>pkg_operations&#45;&gt;db</title>
<path fill="none" stroke="black" d="M326.2,-517.69C254.66,-326.27 246.42,-304.14 220.82,-231.7"/>
<polygon fill="black" stroke="black" points="224.07,-230.38 217.44,-222.11 217.47,-232.71 224.07,-230.38"/>
</g>
<!-- pkg_hasher -->
<g id="node8" class="node">
<title>pkg_hasher</title>
<path fill="#fff3cd" stroke="black" d="M99.5,-221.88C99.5,-221.88 28.5,-221.88 28.5,-221.88 22.5,-221.88 16.5,-215.88 16.5,-209.88 16.5,-209.88 16.5,-197.88 16.5,-197.88 16.5,-191.88 22.5,-185.88 28.5,-185.88 28.5,-185.88 99.5,-185.88 99.5,-185.88 105.5,-185.88 111.5,-191.88 111.5,-197.88 111.5,-197.88 111.5,-209.88 111.5,-209.88 111.5,-215.88 105.5,-221.88 99.5,-221.88"/>
<text text-anchor="middle" x="64" y="-200.18" font-family="Arial" font-size="14.00">pkg/hasher</text>
</g>
<!-- pkg_operations&#45;&gt;pkg_hasher -->
<g id="edge11" class="edge">
<title>pkg_operations&#45;&gt;pkg_hasher</title>
<path fill="none" stroke="black" d="M318.25,-517.63C161.75,-324.11 144.78,-303.14 85.06,-229.75"/>
<polygon fill="black" stroke="black" points="87.77,-227.54 78.75,-221.99 82.34,-231.96 87.77,-227.54"/>
</g>
<!-- pkg_operations&#45;&gt;user_fs -->
<g id="edge12" class="edge">
<title>pkg_operations&#45;&gt;user_fs</title>
<path fill="none" stroke="black" d="M336.03,-517.71C387.52,-209.53 391.73,-184.83 415.89,-65.94"/>
<polygon fill="black" stroke="black" points="419.34,-66.56 417.9,-56.07 412.48,-65.17 419.34,-66.56"/>
</g>
<!-- db_file -->
<g id="node11" class="node">
<title>db_file</title>
<path fill="whitesmoke" stroke="black" d="M287,-52.2C287,-54.19 261.9,-55.81 231,-55.81 200.1,-55.81 175,-54.19 175,-52.2 175,-52.2 175,-19.68 175,-19.68 175,-17.68 200.1,-16.06 231,-16.06 261.9,-16.06 287,-17.68 287,-19.68 287,-19.68 287,-52.2 287,-52.2"/>
<path fill="none" stroke="black" d="M287,-52.2C287,-50.21 261.9,-48.59 231,-48.59 200.1,-48.59 175,-50.21 175,-52.2"/>
<text text-anchor="middle" x="231" y="-32.24" font-family="Arial" font-size="14.00">Database File</text>
</g>
<!-- db&#45;&gt;db_file -->
<g id="edge19" class="edge">
<title>db&#45;&gt;db_file</title>
<path fill="none" stroke="black" d="M211.13,-185.77C211.72,-111.37 212.42,-91.6 220.52,-65.49"/>
<polygon fill="black" stroke="black" points="223.88,-66.49 223.7,-55.89 217.23,-64.28 223.88,-66.49"/>
</g>
</g>
</svg>
