<?xml version="1.0" encoding="UTF-8" standalone="no"?>
<!DOCTYPE svg PUBLIC "-//W3C//DTD SVG 1.1//EN"
 "http://www.w3.org/Graphics/SVG/1.1/DTD/svg11.dtd">
<!-- Generated by graphviz version 2.43.0 (0)
 -->
<!-- Title: package_dependency_graph Pages: 1 -->
<svg width="590pt" height="177pt"
 viewBox="0.00 0.00 590.00 177.00" xmlns="http://www.w3.org/2000/svg" xmlns:xlink="http://www.w3.org/1999/xlink">
<g id="graph0" class="graph" transform="scale(1 1) rotate(0) translate(4 173)">
<title>package_dependency_graph</title>
<polygon fill="white" stroke="transparent" points="-4,4 -4,-173 586,-173 586,4 -4,4"/>
<g id="clust1" class="cluster">
<title>cluster_app</title>
<polygon fill="#eeeeee" stroke="#eeeeee" points="8,-8 8,-161 438,-161 438,-8 8,-8"/>
<text text-anchor="middle" x="223" y="-147.4" font-family="Times,serif" font-size="12.00">Gogg Application</text>
</g>
<g id="clust2" class="cluster">
<title>cluster_external</title>
<polygon fill="#eeeeee" stroke="#eeeeee" points="458,-13 458,-140 574,-140 574,-13 458,-13"/>
<text text-anchor="middle" x="516" y="-126.4" font-family="Times,serif" font-size="12.00">External Systems</text>
</g>
<!-- main -->
<g id="node1" class="node">
<title>main</title>
<path fill="#a7c7e7" stroke="black" d="M58,-93C58,-93 28,-93 28,-93 22,-93 16,-87 16,-81 16,-81 16,-69 16,-69 16,-63 22,-57 28,-57 28,-57 58,-57 58,-57 64,-57 70,-63 70,-69 70,-69 70,-81 70,-81 70,-87 64,-93 58,-93"/>
<text text-anchor="middle" x="43" y="-71.3" font-family="Arial" font-size="14.00">main</text>
</g>
<!-- cmd -->
<g id="node2" class="node">
<title>cmd</title>
<path fill="#a7c7e7" stroke="black" d="M148,-93C148,-93 118,-93 118,-93 112,-93 106,-87 106,-81 106,-81 106,-69 106,-69 106,-63 112,-57 118,-57 118,-57 148,-57 148,-57 154,-57 160,-63 160,-69 160,-69 160,-81 160,-81 160,-87 154,-93 148,-93"/>
<text text-anchor="middle" x="133" y="-71.3" font-family="Arial" font-size="14.00">cmd</text>
</g>
<!-- main&#45;&gt;cmd -->
<g id="edge1" class="edge">
<title>main&#45;&gt;cmd</title>
<path fill="none" stroke="black" d="M70,-75C70,-75 95.71,-75 95.71,-75"/>
<polygon fill="black" stroke="black" points="95.71,-78.5 105.71,-75 95.7,-71.5 95.71,-78.5"/>
</g>
<!-- gui -->
<g id="node3" class="node">
<title>gui</title>
<path fill="#a7c7e7" stroke="black" d="M238,-75C238,-75 208,-75 208,-75 202,-75 196,-69 196,-63 196,-63 196,-51 196,-51 196,-45 202,-39 208,-39 208,-39 238,-39 238,-39 244,-39 250,-45 250,-51 250,-51 250,-63 250,-63 250,-69 244,-75 238,-75"/>
<text text-anchor="middle" x="223" y="-53.3" font-family="Arial" font-size="14.00">gui</text>
</g>
<!-- cmd&#45;&gt;gui -->
<g id="edge2" class="edge">
<title>cmd&#45;&gt;gui</title>
<path fill="none" stroke="black" d="M160,-66C160,-66 185.71,-66 185.71,-66"/>
<polygon fill="black" stroke="black" points="185.71,-69.5 195.71,-66 185.7,-62.5 185.71,-69.5"/>
</g>
<!-- auth -->
<g id="node4" class="node">
<title>auth</title>
<path fill="#d4edda" stroke="black" d="M328,-112C328,-112 298,-112 298,-112 292,-112 286,-106 286,-100 286,-100 286,-88 286,-88 286,-82 292,-76 298,-76 298,-76 328,-76 328,-76 334,-76 340,-82 340,-88 340,-88 340,-100 340,-100 340,-106 334,-112 328,-112"/>
<text text-anchor="middle" x="313" y="-90.3" font-family="Arial" font-size="14.00">auth</text>
</g>
<!-- cmd&#45;&gt;auth -->
<g id="edge3" class="edge">
<title>cmd&#45;&gt;auth</title>
<path fill="none" stroke="black" d="M160.34,-87.33C160.34,-87.33 275.99,-87.33 275.99,-87.33"/>
<polygon fill="black" stroke="black" points="275.99,-90.83 285.99,-87.33 275.99,-83.83 275.99,-90.83"/>
</g>
<!-- client -->
<g id="node5" class="node">
<title>client</title>
<path fill="#f8d7da" stroke="black" d="M418,-56C418,-56 388,-56 388,-56 382,-56 376,-50 376,-44 376,-44 376,-32 376,-32 376,-26 382,-20 388,-20 388,-20 418,-20 418,-20 424,-20 430,-26 430,-32 430,-32 430,-44 430,-44 430,-50 424,-56 418,-56"/>
<text text-anchor="middle" x="403" y="-34.3" font-family="Arial" font-size="14.00">client</text>
</g>
<!-- cmd&#45;&gt;client -->
<g id="edge4" class="edge">
<title>cmd&#45;&gt;client</title>
<path fill="none" stroke="black" d="M133,-56.76C133,-44.1 133,-29.5 133,-29.5 133,-29.5 365.88,-29.5 365.88,-29.5"/>
<polygon fill="black" stroke="black" points="365.88,-33 375.88,-29.5 365.88,-26 365.88,-33"/>
</g>
<!-- db -->
<g id="node6" class="node">
<title>db</title>
<path fill="#fff3cd" stroke="black" d="M418,-111C418,-111 388,-111 388,-111 382,-111 376,-105 376,-99 376,-99 376,-87 376,-87 376,-81 382,-75 388,-75 388,-75 418,-75 418,-75 424,-75 430,-81 430,-87 430,-87 430,-99 430,-99 430,-105 424,-111 418,-111"/>
<text text-anchor="middle" x="403" y="-89.3" font-family="Arial" font-size="14.00">db</text>
</g>
<!-- cmd&#45;&gt;db -->
<g id="edge5" class="edge">
<title>cmd&#45;&gt;db</title>
<path fill="none" stroke="black" d="M133,-93.01C133,-109.05 133,-130 133,-130 133,-130 403,-130 403,-130 403,-130 403,-121.07 403,-121.07"/>
<polygon fill="black" stroke="black" points="406.5,-121.07 403,-111.07 399.5,-121.07 406.5,-121.07"/>
</g>
<!-- gui&#45;&gt;auth -->
<g id="edge6" class="edge">
<title>gui&#45;&gt;auth</title>
<path fill="none" stroke="black" d="M223,-75.19C223,-78.88 223,-81.67 223,-81.67 223,-81.67 276,-81.67 276,-81.67"/>
<polygon fill="black" stroke="black" points="276,-85.17 286,-81.67 276,-78.17 276,-85.17"/>
</g>
<!-- gui&#45;&gt;client -->
<g id="edge7" class="edge">
<title>gui&#45;&gt;client</title>
<path fill="none" stroke="black" d="M250.34,-44.67C250.34,-44.67 365.99,-44.67 365.99,-44.67"/>
<polygon fill="black" stroke="black" points="365.99,-48.17 375.99,-44.67 365.99,-41.17 365.99,-48.17"/>
</g>
<!-- gui&#45;&gt;db -->
<g id="edge8" class="edge">
<title>gui&#45;&gt;db</title>
<path fill="none" stroke="black" d="M250.34,-66C300.69,-66 403,-66 403,-66 403,-66 403,-66.88 403,-66.88"/>
<polygon fill="black" stroke="black" points="399.5,-64.84 403,-74.84 406.5,-64.84 399.5,-64.84"/>
</g>
<!-- auth&#45;&gt;client -->
<g id="edge9" class="edge">
<title>auth&#45;&gt;client</title>
<path fill="none" stroke="black" d="M313,-75.99C313,-63.96 313,-50.33 313,-50.33 313,-50.33 366,-50.33 366,-50.33"/>
<polygon fill="black" stroke="black" points="366,-53.83 376,-50.33 366,-46.83 366,-53.83"/>
</g>
<!-- auth&#45;&gt;db -->
<g id="edge10" class="edge">
<title>auth&#45;&gt;db</title>
<path fill="none" stroke="black" d="M340,-93.5C340,-93.5 365.71,-93.5 365.71,-93.5"/>
<polygon fill="black" stroke="black" points="365.71,-97 375.71,-93.5 365.7,-90 365.71,-97"/>
</g>
<!-- gog_api -->
<g id="node7" class="node">
<title>gog_api</title>
<path fill="whitesmoke" stroke="black" d="M554,-53.73C554,-55.53 536.97,-57 516,-57 495.03,-57 478,-55.53 478,-53.73 478,-53.73 478,-24.27 478,-24.27 478,-22.47 495.03,-21 516,-21 536.97,-21 554,-22.47 554,-24.27 554,-24.27 554,-53.73 554,-53.73"/>
<path fill="none" stroke="black" d="M554,-53.73C554,-51.92 536.97,-50.45 516,-50.45 495.03,-50.45 478,-51.92 478,-53.73"/>
<text text-anchor="middle" x="516" y="-35.3" font-family="Arial" font-size="14.00">GOG API</text>
</g>
<!-- client&#45;&gt;gog_api -->
<g id="edge11" class="edge">
<title>client&#45;&gt;gog_api</title>
<path fill="none" stroke="black" d="M430.07,-38.5C430.07,-38.5 467.62,-38.5 467.62,-38.5"/>
<polygon fill="black" stroke="black" points="467.62,-42 477.62,-38.5 467.62,-35 467.62,-42"/>
</g>
<!-- db_file -->
<g id="node8" class="node">
<title>db_file</title>
<path fill="whitesmoke" stroke="black" d="M566,-107.73C566,-109.53 543.59,-111 516,-111 488.41,-111 466,-109.53 466,-107.73 466,-107.73 466,-78.27 466,-78.27 466,-76.47 488.41,-75 516,-75 543.59,-75 566,-76.47 566,-78.27 566,-78.27 566,-107.73 566,-107.73"/>
<path fill="none" stroke="black" d="M566,-107.73C566,-105.92 543.59,-104.45 516,-104.45 488.41,-104.45 466,-105.92 466,-107.73"/>
<text text-anchor="middle" x="516" y="-89.3" font-family="Arial" font-size="14.00">Database File</text>
</g>
<!-- db&#45;&gt;db_file -->
<g id="edge12" class="edge">
<title>db&#45;&gt;db_file</title>
<path fill="none" stroke="black" d="M430.07,-93C430.07,-93 455.71,-93 455.71,-93"/>
<polygon fill="black" stroke="black" points="455.71,-96.5 465.71,-93 455.71,-89.5 455.71,-96.5"/>
</g>
</g>
</svg>
